<?xml version="1.0" ?><svg id="Layer_1" style="enable-background:new 0 0 32 32;" version="1.1" viewBox="0 0 32 32" xml:space="preserve" xmlns="http://www.w3.org/2000/svg" xmlns:xlink="http://www.w3.org/1999/xlink"><style type="text/css">
	.st0{clip-path:url(#SVGID_2_);}
	.st1{clip-path:url(#SVGID_4_);}
</style><g><g><path d="M17,26c-0.1376953,0-0.2758789-0.0283203-0.4057617-0.0859375L6.2177734,21.3066406H3c-0.5522461,0-1-0.4477539-1-1    v-8.6132813c0-0.5522461,0.4477539-1,1-1h3.2177734l10.3764648-4.6074219    c0.309082-0.137207,0.6674805-0.1088867,0.9506836,0.0756836C17.8286133,6.3461914,18,6.6616211,18,7v18    c0,0.3383789-0.1713867,0.6538086-0.4550781,0.8383789C17.3803711,25.9453125,17.1904297,26,17,26z M4,19.3066406h2.4296875    c0.1396484,0,0.277832,0.0292969,0.4057617,0.0859375L16,23.4619141V8.5380859l-9.1645508,4.0693359    c-0.1279297,0.0566406-0.2661133,0.0859375-0.4057617,0.0859375H4V19.3066406z"/></g><g><path d="M24.7514648,24.0683594c-0.3579102,0-0.7041016-0.1923828-0.8837891-0.5307617    c-0.2592773-0.4873047-0.0742188-1.0927734,0.4135742-1.3520508C26.5751953,20.9658203,28,18.5957031,28,16    c0-2.5952148-1.4248047-4.965332-3.71875-6.1850586c-0.487793-0.2592773-0.6728516-0.8647461-0.4135742-1.3520508    c0.2587891-0.4873047,0.8642578-0.6733398,1.3520508-0.4135742C28.168457,9.6166992,30,12.6635742,30,16    c0,3.3369141-1.831543,6.3837891-4.7802734,7.9511719C25.0703125,24.0307617,24.909668,24.0683594,24.7514648,24.0683594z"/></g><g><path d="M21,20.75c-0.5522461,0-1-0.4477539-1-1s0.4477539-1,1-1c1.5166016,0,2.75-1.2333984,2.75-2.75s-1.2333984-2.75-2.75-2.75    c-0.5522461,0-1-0.4477539-1-1s0.4477539-1,1-1c2.6191406,0,4.75,2.1308594,4.75,4.75S23.6191406,20.75,21,20.75z"/></g></g></svg>